<svg width="36" height="28" viewBox="0 0 36 28" fill="none" xmlns="http://www.w3.org/2000/svg">
<g clip-path="url(#clip0_213_805)">
<path d="M9.26354 13.5842C8.03065 13.5884 6.81958 13.9098 5.74688 14.5175C7.25713 10.6084 9.76198 7.16132 13.0135 4.51752C13.1996 4.36431 13.3536 4.17596 13.4669 3.96322C13.5801 3.75048 13.6504 3.51751 13.6736 3.27763C13.6968 3.03774 13.6725 2.79564 13.6022 2.56513C13.5318 2.33462 13.4168 2.12022 13.2635 1.93419C13.1103 1.74815 12.922 1.5941 12.7092 1.48086C12.4965 1.36761 12.2635 1.29737 12.0237 1.27416C11.7838 1.25094 11.5417 1.27521 11.3111 1.34556C11.0806 1.41591 10.8662 1.53098 10.6802 1.68418C4.01354 7.10085 1.04688 14.6009 1.04688 19.2509C1.05836 20.895 1.54833 22.5002 2.45694 23.8706C3.36556 25.2409 4.65351 26.317 6.16354 26.9675C7.14081 27.4409 8.21102 27.6914 9.29688 27.7009C10.2526 27.7473 11.2079 27.5992 12.1047 27.2654C13.0015 26.9317 13.8212 26.4193 14.514 25.7593C15.2069 25.0993 15.7585 24.3054 16.1354 23.4259C16.5123 22.5463 16.7066 21.5994 16.7066 20.6425C16.7066 19.6856 16.5123 18.7387 16.1354 17.8592C15.7585 16.9796 15.2069 16.1858 14.514 15.5258C13.8212 14.8658 13.0015 14.3534 12.1047 14.0196C11.2079 13.6859 10.2526 13.5377 9.29688 13.5842H9.26354Z" fill="black"/>
<path d="M27.8339 13.5826C26.6008 13.5852 25.3893 13.9067 24.3172 14.5159C25.8268 10.6108 28.3251 7.16494 31.5672 4.51589C31.7701 4.36961 31.941 4.18336 32.0692 3.9686C32.1975 3.75383 32.2804 3.51509 32.3129 3.26706C32.3455 3.01904 32.3269 2.76698 32.2584 2.5264C32.1898 2.28583 32.0728 2.06182 31.9145 1.86816C31.7561 1.67451 31.5598 1.51531 31.3377 1.40036C31.1155 1.2854 30.8721 1.21713 30.6226 1.19975C30.3731 1.18236 30.1226 1.21622 29.8866 1.29925C29.6507 1.38229 29.4342 1.51273 29.2505 1.68255C22.5839 7.09922 19.6172 14.5992 19.6172 19.2492C19.6251 20.8748 20.1008 22.4636 20.9874 23.8261C21.874 25.1886 23.1341 26.267 24.6172 26.9326C25.6192 27.4198 26.7197 27.6707 27.8339 27.6659C28.7896 27.7123 29.7449 27.5642 30.6417 27.2305C31.5385 26.8967 32.3582 26.3843 33.051 25.7243C33.7439 25.0643 34.2955 24.2705 34.6724 23.3909C35.0493 22.5114 35.2436 21.5644 35.2436 20.6076C35.2436 19.6507 35.0493 18.7037 34.6724 17.8242C34.2955 16.9446 33.7439 16.1508 33.051 15.4908C32.3582 14.8308 31.5385 14.3184 30.6417 13.9846C29.7449 13.6509 28.7896 13.5028 27.8339 13.5492V13.5826Z" fill="black"/>
</g>
<defs>
<clipPath id="clip0_213_805">
<rect width="36" height="28" fill="white"/>
</clipPath>
</defs>
</svg>
