<svg width="20" height="20" viewBox="0 0 20 20" fill="none" xmlns="http://www.w3.org/2000/svg">
<path d="M9.54449 13.2749L2.90699 6.30862C2.79619 6.19239 2.73437 6.03796 2.73438 5.87737C2.73438 5.71679 2.79619 5.56236 2.90699 5.44613L2.91449 5.43862C2.96821 5.38208 3.03287 5.33706 3.10454 5.30629C3.1762 5.27552 3.25338 5.25966 3.33137 5.25966C3.40936 5.25966 3.48654 5.27552 3.5582 5.30629C3.62987 5.33706 3.69453 5.38208 3.74824 5.43862L9.99824 11.9986L16.2457 5.43862C16.2995 5.38208 16.3641 5.33706 16.4358 5.30629C16.5075 5.27552 16.5846 5.25966 16.6626 5.25966C16.7406 5.25966 16.8178 5.27552 16.8895 5.30629C16.9611 5.33706 17.0258 5.38208 17.0795 5.43862L17.087 5.44613C17.1978 5.56236 17.2596 5.71679 17.2596 5.87737C17.2596 6.03796 17.1978 6.19239 17.087 6.30862L10.4495 13.2749C10.3911 13.3361 10.3209 13.3849 10.2431 13.4182C10.1654 13.4516 10.0816 13.4688 9.99699 13.4688C9.91237 13.4688 9.82863 13.4516 9.75085 13.4182C9.67307 13.3849 9.60287 13.3361 9.54449 13.2749Z" fill="black"/>
</svg>
