<svg width="20" height="20" viewBox="0 0 20 20" fill="none" xmlns="http://www.w3.org/2000/svg">
<path d="M14.6997 6.59844H12.9939C12.6489 6.59844 12.3689 6.87802 12.3689 7.22344C12.3689 7.56885 12.6489 7.84844 12.9939 7.84844H14.7001C15.0447 7.84844 15.3251 8.12885 15.3251 8.47344V16.6468C15.3251 16.9914 15.0447 17.2718 14.7001 17.2718H5.30469C4.9601 17.2718 4.67969 16.9914 4.67969 16.6468V8.47344C4.67969 8.12885 4.9601 7.84844 5.30469 7.84844H7.01094C7.35635 7.84844 7.63594 7.56885 7.63594 7.22344C7.63594 6.87802 7.35635 6.59844 7.01094 6.59844H5.30469C4.27094 6.59844 3.42969 7.43969 3.42969 8.47344V16.6468C3.42969 17.6805 4.27094 18.5218 5.30469 18.5218H14.7001C15.7339 18.5218 16.5751 17.6805 16.5751 16.6468V8.47344C16.5747 7.43927 15.7339 6.59844 14.6997 6.59844ZM7.67177 5.33677L9.39802 3.61052V11.8389C9.39802 12.1839 9.6776 12.4639 10.023 12.4639C10.3684 12.4639 10.648 12.1839 10.648 11.8389V3.61052L12.3743 5.33677C12.4964 5.45885 12.6564 5.51969 12.8164 5.51969C12.9764 5.51969 13.1364 5.45885 13.2584 5.33677C13.5026 5.09302 13.5026 4.69677 13.2584 4.45302L10.4655 1.65969C10.2209 1.41552 9.82552 1.41552 9.58135 1.65969L6.78802 4.45302C6.54385 4.69677 6.54385 5.09302 6.78802 5.33677C7.03219 5.58094 7.4276 5.58094 7.67177 5.33677Z" fill="white"/>
</svg>
