<svg width="24" height="23" viewBox="0 0 24 23" fill="none" xmlns="http://www.w3.org/2000/svg">
<g clip-path="url(#clip0_213_829)">
<path d="M18.335 17.5749H15.67V13.5719C15.67 12.6174 15.65 11.3888 14.28 11.3888C12.891 11.3888 12.679 12.4277 12.679 13.502V17.5749H10.013V9.34375H12.573V10.465H12.608C12.966 9.81908 13.836 9.13579 15.136 9.13579C17.836 9.13579 18.336 10.8397 18.336 13.0563V17.5749H18.335ZM7.003 8.21771C6.79956 8.21796 6.59806 8.17973 6.41006 8.10521C6.22207 8.03068 6.05127 7.92133 5.90746 7.78343C5.76365 7.64552 5.64965 7.48177 5.57201 7.30155C5.49437 7.12134 5.4546 6.92822 5.455 6.73325C5.4552 6.43984 5.54618 6.15308 5.71644 5.90922C5.8867 5.66537 6.12859 5.47537 6.41153 5.36327C6.69447 5.25116 7.00574 5.22197 7.30598 5.2794C7.60622 5.33683 7.88196 5.47829 8.09831 5.68589C8.31466 5.8935 8.46191 6.15792 8.52145 6.44573C8.58099 6.73354 8.55013 7.0318 8.43278 7.30281C8.31544 7.57381 8.11687 7.80538 7.86219 7.96823C7.60751 8.13108 7.30817 8.2179 7.002 8.21771H7.003ZM8.339 17.5749H5.666V9.34375H8.34V17.5749H8.339ZM19.67 2.875H4.329C3.593 2.875 3 3.43083 3 4.11796V18.882C3 19.5692 3.594 20.125 4.328 20.125H19.666C20.4 20.125 21 19.5692 21 18.882V4.11796C21 3.43083 20.4 2.875 19.666 2.875H19.669H19.67Z" fill="#454444"/>
</g>
<defs>
<clipPath id="clip0_213_829">
<rect width="24" height="23" fill="white"/>
</clipPath>
</defs>
</svg>
